# xmcd
#
# Track frame offsets:
#	150
#	19825
#	39461
#	54171
#	82662
#	108724
#	129760
#	149029
#	176382
#	200336
#	228992
#
# Disc length: 3394 seconds
#
# Revision: 1
# Processed by: cddbd v1.5.2PL0 Copyright (c) Steve Scherf et al.
# Submitted via: audiograbber 1.83.01
#
DISCID=860d400b
DTITLE=Robben Ford - Truth
DYEAR=2007
DGENRE=Blues
TTITLE0=Lateral Climb
TTITLE1=Deep In The Blues
TTITLE2=Nobody's Fault But Mine
TTITLE3=Riley B. King
TTITLE4=You're Gonna Need A Friend
TTITLE5=One Man's Ceiling Is Another Man's Floor
TTITLE6=Too Much
TTITLE7=Peace On My Mind
TTITLE8=There'll Never Be Another You
TTITLE9=RIver Of Soul
TTITLE10=Moonchild Blues
EXTD=
EXTT0=
EXTT1=
EXTT2=
EXTT3=
EXTT4=
EXTT5=
EXTT6=
EXTT7=
EXTT8=
EXTT9=
EXTT10=
PLAYORDER=
